<svg xmlns="http://www.w3.org/2000/svg" viewBox="0 0 400 300" fill="none">
  <rect width="400" height="300" fill="#f8fafc"/>

  <!-- Title -->
  <text x="200" y="30" font-family="system-ui" font-size="14" font-weight="600" fill="#1e293b" text-anchor="middle">Temporal Workflow DAG</text>

  <!-- Parent Workflow -->
  <rect x="150" y="60" width="100" height="40" rx="4" fill="#4f46e5" stroke="#3730a3" stroke-width="2"/>
  <text x="200" y="84" font-family="system-ui" font-size="11" fill="white" text-anchor="middle">ParentWorkflow</text>

  <!-- Child Workspaces -->
  <rect x="50" y="140" width="80" height="35" rx="4" fill="#10b981" stroke="#059669" stroke-width="2"/>
  <text x="90" y="162" font-family="system-ui" font-size="10" fill="white" text-anchor="middle">vpc</text>

  <rect x="160" y="140" width="80" height="35" rx="4" fill="#10b981" stroke="#059669" stroke-width="2"/>
  <text x="200" y="162" font-family="system-ui" font-size="10" fill="white" text-anchor="middle">eks</text>

  <rect x="270" y="140" width="80" height="35" rx="4" fill="#10b981" stroke="#059669" stroke-width="2"/>
  <text x="310" y="162" font-family="system-ui" font-size="10" fill="white" text-anchor="middle">rds</text>

  <!-- Dependencies -->
  <rect x="105" y="210" width="80" height="35" rx="4" fill="#f59e0b" stroke="#d97706" stroke-width="2"/>
  <text x="145" y="232" font-family="system-ui" font-size="10" fill="white" text-anchor="middle">monitoring</text>

  <rect x="215" y="210" width="80" height="35" rx="4" fill="#f59e0b" stroke="#d97706" stroke-width="2"/>
  <text x="255" y="232" font-family="system-ui" font-size="10" fill="white" text-anchor="middle">app</text>

  <!-- Connection lines -->
  <line x1="200" y1="100" x2="90" y2="140" stroke="#94a3b8" stroke-width="2"/>
  <line x1="200" y1="100" x2="200" y2="140" stroke="#94a3b8" stroke-width="2"/>
  <line x1="200" y1="100" x2="310" y2="140" stroke="#94a3b8" stroke-width="2"/>

  <line x1="90" y1="175" x2="145" y2="210" stroke="#94a3b8" stroke-width="2"/>
  <line x1="200" y1="175" x2="145" y2="210" stroke="#94a3b8" stroke-width="2"/>
  <line x1="200" y1="175" x2="255" y2="210" stroke="#94a3b8" stroke-width="2"/>
  <line x1="310" y1="175" x2="255" y2="210" stroke="#94a3b8" stroke-width="2"/>

  <!-- Legend -->
  <g transform="translate(50, 260)">
    <rect x="0" y="0" width="12" height="12" rx="2" fill="#4f46e5"/>
    <text x="18" y="10" font-family="system-ui" font-size="9" fill="#64748b">Orchestrator</text>

    <rect x="90" y="0" width="12" height="12" rx="2" fill="#10b981"/>
    <text x="108" y="10" font-family="system-ui" font-size="9" fill="#64748b">Foundation</text>

    <rect x="180" y="0" width="12" height="12" rx="2" fill="#f59e0b"/>
    <text x="198" y="10" font-family="system-ui" font-size="9" fill="#64748b">Dependent</text>
  </g>
</svg>
